<svg xmlns="http://www.w3.org/2000/svg" id="Layer_5" width="512" height="512" viewBox="0 0 64 64"><linearGradient id="SVGID_1_" x1="32" x2="32" y1="63" y2="1" gradientUnits="userSpaceOnUse"><stop offset="0" stop-color="#9f2fff"/><stop offset="1" stop-color="#0bb1d3"/></linearGradient><path fill="url(#SVGID_1_)" d="M37 26.931V28h-2v-1.069A2.933 2.933 0 0 0 32.069 24h-.139A2.933 2.933 0 0 0 29 26.931c0 1.348.913 2.517 2.22 2.843l2.046.512A4.922 4.922 0 0 1 37 35.069c0 2.4-1.725 4.399-4 4.837V42h-2v-2.094a4.934 4.934 0 0 1-4-4.837V33h2v2.069A2.933 2.933 0 0 0 31.931 38h.139A2.933 2.933 0 0 0 35 35.069a2.925 2.925 0 0 0-2.22-2.843l-2.046-.512A4.922 4.922 0 0 1 27 26.931c0-2.4 1.725-4.399 4-4.837V20h2v2.094c2.275.437 4 2.437 4 4.837zM59 51h4v12H47V51h10V39h-4v3h-6.572A18.646 18.646 0 0 1 43 45.121a4.694 4.694 0 0 0-2 3.841v.594c1.19.694 2 1.97 2 3.444 0 1.483-.821 2.766-2.023 3.456C40.74 60.103 37.705 63 34 63h-4c-3.705 0-6.74-2.897-6.977-6.544C21.821 55.766 21 54.483 21 53c0-1.474.81-2.75 2-3.444v-.594a4.698 4.698 0 0 0-2-3.842A18.753 18.753 0 0 1 14.08 36H11v7h6v12H1V43h8v-9h4.493A18.701 18.701 0 0 1 13 29.755c0-1.596.216-3.19.631-4.755H11v-3H5V9H1V1h16v8H7v11h4v-3h7.057A18.739 18.739 0 0 1 31 11.041V6h12V1h16v12H43V8H33v3.038c9.99.401 18 8.63 18 18.717 0 1.432-.166 2.854-.489 4.245H53v3h6zM57 3h-6v8h6zm-12 8h4V3h-4zM15 3H9v4h6zM3 7h4V3H3zm0 46h4v-8H3zm12-8H9v8h6zm-2-22h6v-4h-6zm25.899 34H25.101A5.009 5.009 0 0 0 30 61h4a5.01 5.01 0 0 0 4.899-4zM41 53c0-1.103-.897-2-2-2H25c-1.103 0-2 .897-2 2s.897 2 2 2h14c1.103 0 2-.897 2-2zm2.674-11H43v-8h2v-2h-6v-2h8v4h1.441A16.69 16.69 0 0 0 49 29.755c0-8.984-7.113-16.318-16-16.717V18h-2v-4.959A16.724 16.724 0 0 0 20.951 17H21v8h-2v2h6v2h-8v-4h-1.283A16.598 16.598 0 0 0 15 29.755c0 1.449.193 2.873.553 4.245H25v2h-8.784a16.757 16.757 0 0 0 5.93 7.482A6.696 6.696 0 0 1 25 48.962V49l14-.038a6.69 6.69 0 0 1 2.854-5.479A16.67 16.67 0 0 0 43.674 42zM51 36h-6v4h6zm-2 25h4v-8h-4zm12-8h-6v8h6z"/></svg>